<mxfile host="app.diagrams.net" agent="Mozilla/5.0 (Windows NT 10.0; Win64; x64) AppleWebKit/537.36 (KHTML, like Gecko) Chrome/128.0.0.0 Safari/537.36" version="24.7.13">
  <diagram name="Page-1" id="EtehkmUGtoFDenz-zA8k">
    <mxGraphModel dx="954" dy="661" grid="1" gridSize="10" guides="1" tooltips="1" connect="1" arrows="1" fold="1" page="1" pageScale="1" pageWidth="850" pageHeight="1100" math="0" shadow="0">
      <root>
        <mxCell id="0" />
        <mxCell id="1" parent="0" />
        <mxCell id="L28P4xHWPFCMmD0ufhgJ-1" value="Customers" style="swimlane;fontStyle=0;childLayout=stackLayout;horizontal=1;startSize=30;horizontalStack=0;resizeParent=1;resizeParentMax=0;resizeLast=0;collapsible=1;marginBottom=0;whiteSpace=wrap;html=1;fillColor=#d5e8d4;strokeColor=#82b366;" vertex="1" parent="1">
          <mxGeometry x="50" y="60" width="160" height="200" as="geometry" />
        </mxCell>
        <mxCell id="L28P4xHWPFCMmD0ufhgJ-45" value="&lt;font style=&quot;font-size: 14px;&quot; face=&quot;Times New Roman&quot;&gt;&amp;nbsp;Customer_id&amp;nbsp;&lt;/font&gt;&lt;div&gt;&lt;font style=&quot;font-size: 14px;&quot; face=&quot;Times New Roman&quot;&gt;&amp;nbsp;First_name&lt;br&gt;&amp;nbsp;Last_name&lt;br&gt;&amp;nbsp;Email&lt;/font&gt;&lt;/div&gt;&lt;div&gt;&lt;font style=&quot;font-size: 14px;&quot; face=&quot;Times New Roman&quot;&gt;&amp;nbsp;Phone&lt;br&gt;&amp;nbsp;Membership_Status (e.g.,&amp;nbsp; &amp;nbsp; &amp;nbsp; &amp;nbsp; regular, premium)&lt;br&gt;&amp;nbsp;Join_date&lt;/font&gt;&lt;/div&gt;" style="text;whiteSpace=wrap;html=1;fillColor=#d5e8d4;strokeColor=#82b366;fillStyle=dots;" vertex="1" parent="L28P4xHWPFCMmD0ufhgJ-1">
          <mxGeometry y="30" width="160" height="170" as="geometry" />
        </mxCell>
        <mxCell id="L28P4xHWPFCMmD0ufhgJ-5" value="Employee" style="swimlane;fontStyle=0;childLayout=stackLayout;horizontal=1;startSize=30;horizontalStack=0;resizeParent=1;resizeParentMax=0;resizeLast=0;collapsible=1;marginBottom=0;whiteSpace=wrap;html=1;fillColor=#ffe6cc;strokeColor=#d79b00;" vertex="1" parent="1">
          <mxGeometry x="310" y="80" width="140" height="250" as="geometry" />
        </mxCell>
        <mxCell id="L28P4xHWPFCMmD0ufhgJ-6" value="&lt;p style=&quot;line-height: 150%;&quot;&gt;&lt;font face=&quot;Helvetica&quot; style=&quot;font-size: 12px;&quot;&gt;&lt;span style=&quot;background-color: initial; text-align: justify;&quot;&gt;Employee_id&lt;/span&gt;&lt;span style=&quot;background-color: initial; text-align: justify;&quot;&gt;&amp;nbsp;&lt;/span&gt;&lt;br&gt;&lt;span style=&quot;background-color: initial;&quot;&gt;First_name&lt;/span&gt;&lt;br&gt;&lt;span style=&quot;background-color: initial;&quot;&gt;Last_name&lt;/span&gt;&lt;br&gt;&lt;span style=&quot;background-color: initial;&quot;&gt;Email&lt;/span&gt;&lt;br&gt;&lt;span style=&quot;background-color: initial;&quot;&gt;Phone&lt;/span&gt;&lt;br&gt;&lt;span style=&quot;background-color: initial;&quot;&gt;Hire_date&lt;/span&gt;&lt;br&gt;&lt;span style=&quot;background-color: initial;&quot;&gt;Position&lt;/span&gt;&lt;span style=&quot;background-color: initial;&quot;&gt;&amp;nbsp;(e.g., cashier, manager)&lt;/span&gt;&lt;br&gt;&lt;span style=&quot;background-color: initial;&quot;&gt;Salary&lt;/span&gt;&lt;/font&gt;&lt;/p&gt;" style="text;strokeColor=#d6b656;fillColor=#fff2cc;align=left;verticalAlign=middle;spacingLeft=4;spacingRight=4;overflow=hidden;points=[[0,0.5],[1,0.5]];portConstraint=eastwest;rotatable=0;whiteSpace=wrap;html=1;fillStyle=dots;" vertex="1" parent="L28P4xHWPFCMmD0ufhgJ-5">
          <mxGeometry y="30" width="140" height="220" as="geometry" />
        </mxCell>
        <mxCell id="L28P4xHWPFCMmD0ufhgJ-9" value="Book" style="swimlane;fontStyle=0;childLayout=stackLayout;horizontal=1;startSize=30;horizontalStack=0;resizeParent=1;resizeParentMax=0;resizeLast=0;collapsible=1;marginBottom=0;whiteSpace=wrap;html=1;fillColor=#dae8fc;strokeColor=#6c8ebf;" vertex="1" parent="1">
          <mxGeometry x="670" y="100" width="140" height="210" as="geometry" />
        </mxCell>
        <mxCell id="L28P4xHWPFCMmD0ufhgJ-46" value="&lt;p style=&quot;line-height: 150%;&quot;&gt;&amp;nbsp;Book_id&amp;nbsp;&lt;br&gt;&amp;nbsp;Title&lt;br&gt;&amp;nbsp;Author&lt;br&gt;&amp;nbsp;Genre&lt;br&gt;&amp;nbsp;Price&lt;br&gt;&amp;nbsp;Publication_date&lt;br&gt;&amp;nbsp;Stock_quantity&lt;/p&gt;" style="text;whiteSpace=wrap;html=1;align=left;fillColor=#dae8fc;strokeColor=#6c8ebf;fillStyle=dots;" vertex="1" parent="L28P4xHWPFCMmD0ufhgJ-9">
          <mxGeometry y="30" width="140" height="180" as="geometry" />
        </mxCell>
        <mxCell id="L28P4xHWPFCMmD0ufhgJ-13" value="Sales" style="swimlane;fontStyle=0;childLayout=stackLayout;horizontal=1;startSize=30;horizontalStack=0;resizeParent=1;resizeParentMax=0;resizeLast=0;collapsible=1;marginBottom=0;whiteSpace=wrap;html=1;fillColor=#e1d5e7;strokeColor=#9673a6;" vertex="1" parent="1">
          <mxGeometry x="160" y="350" width="160" height="180" as="geometry" />
        </mxCell>
        <mxCell id="L28P4xHWPFCMmD0ufhgJ-53" value="&lt;p style=&quot;line-height: 150%;&quot;&gt;&amp;nbsp;Sale_id&lt;br&gt;&amp;nbsp;Order_id&amp;nbsp;&lt;br&gt;&amp;nbsp;Book_id&amp;nbsp;&lt;br&gt;&amp;nbsp;Quantity_sold&lt;br&gt;&amp;nbsp;Sale_price (price per book&amp;nbsp; &amp;nbsp; &amp;nbsp; &amp;nbsp; &amp;nbsp;during sale)&lt;br&gt;&amp;nbsp;Discount&lt;/p&gt;" style="text;whiteSpace=wrap;html=1;fillColor=#e1d5e7;strokeColor=#9673a6;fillStyle=dots;" vertex="1" parent="L28P4xHWPFCMmD0ufhgJ-13">
          <mxGeometry y="30" width="160" height="150" as="geometry" />
        </mxCell>
        <mxCell id="L28P4xHWPFCMmD0ufhgJ-17" value="Orders" style="swimlane;fontStyle=0;childLayout=stackLayout;horizontal=1;startSize=30;horizontalStack=0;resizeParent=1;resizeParentMax=0;resizeLast=0;collapsible=1;marginBottom=0;whiteSpace=wrap;html=1;fillColor=#f8cecc;strokeColor=#b85450;" vertex="1" parent="1">
          <mxGeometry x="490" y="160" width="140" height="200" as="geometry" />
        </mxCell>
        <mxCell id="L28P4xHWPFCMmD0ufhgJ-51" value="&lt;p style=&quot;line-height: 160%; font-size: 13px;&quot;&gt;&amp;nbsp;&lt;font style=&quot;font-size: 13px;&quot; face=&quot;Times New Roman&quot;&gt;Order_id&amp;nbsp;&lt;br&gt;&amp;nbsp;Customer_id&amp;nbsp;&lt;br&gt;&amp;nbsp;Employee_id&amp;nbsp;&lt;br&gt;&amp;nbsp;Order_date&lt;br&gt;&amp;nbsp;Total_amount&lt;/font&gt;&lt;/p&gt;" style="text;whiteSpace=wrap;html=1;fillColor=#f8cecc;strokeColor=#b85450;fillStyle=dots;" vertex="1" parent="L28P4xHWPFCMmD0ufhgJ-17">
          <mxGeometry y="30" width="140" height="170" as="geometry" />
        </mxCell>
        <mxCell id="L28P4xHWPFCMmD0ufhgJ-42" value="Entity Relationship Diagram (EDR) for Bookstore" style="rounded=0;whiteSpace=wrap;html=1;fillColor=#f0a30a;fillStyle=auto;strokeColor=#BD7000;fontColor=#000000;shadow=1;" vertex="1" parent="1">
          <mxGeometry x="270" y="20" width="280" height="40" as="geometry" />
        </mxCell>
      </root>
    </mxGraphModel>
  </diagram>
</mxfile>
